<?xml version="1.0" encoding="UTF-8" standalone="no"?>
<!-- Created with Inkscape (http://www.inkscape.org/) -->

<svg
   xmlns:dc="http://purl.org/dc/elements/1.1/"
   xmlns:cc="http://creativecommons.org/ns#"
   xmlns:rdf="http://www.w3.org/1999/02/22-rdf-syntax-ns#"
   xmlns:svg="http://www.w3.org/2000/svg"
   xmlns="http://www.w3.org/2000/svg"
   xmlns:xlink="http://www.w3.org/1999/xlink"
   xmlns:sodipodi="http://sodipodi.sourceforge.net/DTD/sodipodi-0.dtd"
   xmlns:inkscape="http://www.inkscape.org/namespaces/inkscape"
   width="399.89923mm"
   height="399.89923mm"
   viewBox="0 0 399.89923 399.89923"
   version="1.1"
   id="svg8"
   inkscape:version="0.92.4 (5da689c313, 2019-01-14)"
   sodipodi:docname="x-icon.svg">
  <defs
     id="defs2">
    <linearGradient
       inkscape:collect="always"
       id="linearGradient823">
      <stop
         style="stop-color:#5fd1f9;stop-opacity:1"
         offset="0"
         id="stop819" />
      <stop
         style="stop-color:#5558da;stop-opacity:1"
         offset="1"
         id="stop821" />
    </linearGradient>
    <linearGradient
       inkscape:collect="always"
       xlink:href="#linearGradient823"
       id="linearGradient825"
       x1="-128.8898"
       y1="-84.756126"
       x2="-128.8898"
       y2="315.1431"
       gradientUnits="userSpaceOnUse"
       gradientTransform="matrix(1,0,0,-1,0,230.38697)" />
  </defs>
  <sodipodi:namedview
     id="base"
     pagecolor="#ffffff"
     bordercolor="#666666"
     borderopacity="1.0"
     inkscape:pageopacity="0.0"
     inkscape:pageshadow="2"
     inkscape:zoom="0.24748737"
     inkscape:cx="-365.24909"
     inkscape:cy="984.94603"
     inkscape:document-units="mm"
     inkscape:current-layer="layer1"
     showgrid="false"
     showborder="false"
     showguides="false"
     inkscape:guide-bbox="true"
     inkscape:snap-bbox="true"
     inkscape:snap-intersection-paths="true"
     fit-margin-top="0"
     fit-margin-left="0"
     fit-margin-right="0"
     fit-margin-bottom="0"
     inkscape:window-width="3840"
     inkscape:window-height="2115"
     inkscape:window-x="-4"
     inkscape:window-y="-4"
     inkscape:window-maximized="1">
    <sodipodi:guide
       position="199.94953,399.89904"
       orientation="1,0"
       id="guide822"
       inkscape:locked="false" />
    <sodipodi:guide
       position="0.00014242661,199.94964"
       orientation="0,1"
       id="guide824"
       inkscape:locked="false" />
    <inkscape:grid
       type="xygrid"
       id="grid871"
       originx="328.83941"
       originy="18.143087" />
  </sodipodi:namedview>
  <metadata
     id="metadata5">
    <rdf:RDF>
      <cc:Work
         rdf:about="">
        <dc:format>image/svg+xml</dc:format>
        <dc:type
           rdf:resource="http://purl.org/dc/dcmitype/StillImage" />
        <dc:title></dc:title>
      </cc:Work>
    </rdf:RDF>
  </metadata>
  <g
     inkscape:label="Layer 1"
     inkscape:groupmode="layer"
     id="layer1"
     transform="translate(328.83941,84.756126)">
    <path
       style="opacity:1;fill:url(#linearGradient825);fill-opacity:1;stroke:none;stroke-width:0.79374999;stroke-linecap:round;stroke-linejoin:round;stroke-miterlimit:4;stroke-dasharray:none;stroke-dashoffset:0;stroke-opacity:1"
       d="m 12.41215,256.66285 a 199.9494,199.9494 0 0 1 -282.77131,-0.16741 199.9494,199.9494 0 0 1 0.1674,-282.77131 199.9494,199.9494 0 0 1 282.771319,0.1674 199.9494,199.9494 0 0 1 -0.167409,282.77132 z m -45.124509,-45.74688 a 26.460979,26.460979 0 0 0 0.6393,-36.75817 c -0.0085,-0.0256 -0.02119,-0.0497 -0.04161,-0.0702 l -0.346201,-0.34661 a 26.460979,26.460979 0 0 0 -0.22933,-0.24642 26.460979,26.460979 0 0 0 -0.176032,-0.15942 L -91.056156,115.0763 -32.036429,56.12641 c 0.03737,-0.0373 0.05319,-0.0868 0.05087,-0.13553 A 26.460979,26.460979 0 0 0 -32.607674,19.2802 26.460979,26.460979 0 0 0 -69.36584,18.6409 c -0.02532,0.009 -0.04992,0.0214 -0.07018,0.0416 l -0.34844,0.34803 a 26.460979,26.460979 0 0 0 -0.244592,0.2275 26.460979,26.460979 0 0 0 -0.159422,0.17604 l -58.267266,58.19832 -58.12821,-58.19708 a 26.460979,26.460979 0 0 0 -0.22933,-0.24641 26.460979,26.460979 0 0 0 -0.17603,-0.15943 l -0.2308,-0.23107 c -0.0204,-0.0205 -0.0449,-0.0335 -0.0705,-0.0421 a 26.460979,26.460979 0 0 0 -36.94405,0.4104 26.460979,26.460979 0 0 0 -0.47607,36.93329 c 0.006,0.0355 0.0196,0.0701 0.0471,0.0976 l 58.76437,58.83399 -58.19049,58.12163 a 26.460979,26.460979 0 0 0 -0.24459,0.22751 26.460979,26.460979 0 0 0 -0.15943,0.17603 l -0.23144,0.23117 c -0.0203,0.0202 -0.0327,0.0444 -0.0413,0.0698 a 26.460979,26.460979 0 0 0 0.41004,36.94441 26.460979,26.460979 0 0 0 36.93403,0.47607 c 0.0352,-0.006 0.0695,-0.0191 0.0969,-0.0463 l 58.82594,-58.75634 58.941487,59.01132 c 0.0375,0.0375 0.087,0.0538 0.135901,0.0512 a 26.460979,26.460979 0 0 0 36.709948,-0.62212 z"
       id="path815"
       inkscape:connector-curvature="0" />
  </g>
</svg>
